<?xml version="1.0" standalone="no"?>
<!DOCTYPE svg PUBLIC "-//W3C//DTD SVG 20010904//EN"
 "http://www.w3.org/TR/2001/REC-SVG-20010904/DTD/svg10.dtd">
<svg version="1.0" xmlns="http://www.w3.org/2000/svg"
 width="900.000000pt" height="900.000000pt" viewBox="0 0 900.000000 900.000000"
 preserveAspectRatio="xMidYMid meet">
<metadata>
Created by potrace 1.11, written by Peter Selinger 2001-2013
</metadata>
<g transform="translate(0.000000,900.000000) scale(0.100000,-0.100000)"
fill="#000000" stroke="none">
<path d="M3120 7685 c-909 -125 -1605 -854 -1690 -1770 -13 -145 -13 -1417 0
-1559 24 -247 81 -456 186 -675 278 -581 816 -983 1454 -1086 52 -8 113 -15
136 -15 22 0 45 -5 52 -12 6 -6 127 -207 269 -445 142 -239 281 -465 309 -501
102 -135 285 -254 459 -298 96 -25 314 -25 404 -1 190 51 345 151 458 292 26
33 168 263 316 511 l267 451 73 7 c426 39 866 248 1181 561 276 274 457 606
543 997 l27 123 3 808 c4 890 3 920 -57 1153 -67 258 -202 529 -367 733 -71
89 -231 248 -318 316 -289 226 -613 362 -973 409 -108 14 -284 16 -1380 15
-973 -1 -1278 -4 -1352 -14z m2771 -602 c271 -67 485 -183 667 -361 160 -156
275 -340 347 -554 63 -189 64 -209 66 -1063 1 -738 0 -774 -19 -860 -120 -539
-528 -946 -1063 -1060 -41 -9 -147 -20 -236 -24 -145 -7 -168 -11 -215 -34
-29 -14 -67 -41 -84 -59 -18 -18 -170 -265 -339 -548 -169 -283 -318 -529
-331 -546 -72 -96 -242 -111 -348 -30 -24 18 -125 177 -351 553 -340 567 -368
605 -461 637 -27 9 -80 16 -121 16 -162 0 -382 38 -511 89 -187 74 -333 170
-478 315 -217 216 -344 465 -389 766 -22 145 -22 1478 1 1629 87 597 573 1071
1179 1150 40 5 618 8 1335 7 1254 -2 1266 -2 1351 -23z"/>
<path d="M4420 6408 c-30 -19 -60 -72 -200 -350 -91 -180 -173 -335 -182 -344
-13 -13 -104 -30 -380 -70 -200 -29 -374 -56 -387 -59 -14 -4 -42 -24 -64 -46
-39 -39 -39 -40 -35 -101 l5 -63 270 -265 c149 -146 274 -274 277 -285 3 -12
-19 -178 -49 -369 -30 -192 -55 -369 -55 -393 0 -86 55 -143 139 -143 38 0 90
24 366 170 190 100 333 170 349 170 16 0 162 -70 353 -171 188 -99 341 -173
362 -176 70 -10 140 47 148 119 3 26 -19 177 -56 392 -54 312 -59 351 -47 380
7 17 134 150 288 301 241 236 276 275 282 308 10 51 -22 118 -67 141 -19 10
-170 38 -389 71 -244 37 -366 60 -383 71 -25 17 -50 64 -286 550 -76 157 -93
175 -174 182 -40 3 -57 -1 -85 -20z"/>
</g>
</svg>
